<svg xmlns="http://www.w3.org/2000/svg" viewBox="0 0 800 500" data-asset-id="bg-cave" data-layer="background" data-tags="cave,dungeon,underground,dark">
  <rect width="800" height="500" fill="#1a1a1a"/>
  <!-- Cave walls -->
  <path d="M0,0 Q100,50 150,0 Q200,80 250,20 Q350,100 400,30 Q450,90 500,10 Q600,80 650,0 Q700,60 800,0 L800,500 L0,500 Z" fill="#3a3028"/>
  <path d="M0,500 Q100,450 200,470 Q300,430 400,460 Q500,440 600,470 Q700,445 800,460 L800,500 L0,500 Z" fill="#2a2218"/>
  <!-- Stalactites -->
  <polygon points="150,0 160,80 140,80" fill="#4a4038"/>
  <polygon points="350,0 365,100 335,100" fill="#3a3028"/>
  <polygon points="550,0 558,60 542,60" fill="#4a4038"/>
  <polygon points="700,0 712,90 688,90" fill="#3a3028"/>
  <!-- Glowing crystals -->
  <polygon points="200,400 210,370 220,400" fill="#4a90d9" opacity="0.8"/>
  <polygon points="500,420 508,395 516,420" fill="#9b59b6" opacity="0.7"/>
  <polygon points="650,380 660,350 670,380" fill="#4a90d9" opacity="0.6"/>
  <!-- Water puddle -->
  <ellipse cx="400" cy="470" rx="80" ry="15" fill="#1a3050" opacity="0.5"/>
  <!-- Torch light effect -->
  <ellipse cx="300" cy="200" rx="150" ry="120" fill="#ff8800" opacity="0.04"/>
</svg>