<svg xmlns='http://www.w3.org/2000/svg' viewBox='0 0 800 500' data-asset-id='town-square' data-layer='background' data-tags='town,square,fountain,village,market,outdoor' data-origin='center-bottom'>
  <defs>
    <linearGradient id="ts-sky" x1="0" y1="0" x2="0" y2="1">
      <stop offset="0%" stop-color="#1a2030"/>
      <stop offset="60%" stop-color="#2a2a25"/>
      <stop offset="100%" stop-color="#1f1f18"/>
    </linearGradient>
    <linearGradient id="ts-stone" x1="0" y1="0" x2="0" y2="1">
      <stop offset="0%" stop-color="#2a2520"/>
      <stop offset="100%" stop-color="#1a1815"/>
    </linearGradient>
    <radialGradient id="ts-water" cx="0.5" cy="0.4" r="0.5">
      <stop offset="0%" stop-color="#2a3540" stop-opacity="0.5"/>
      <stop offset="100%" stop-color="#1a2025" stop-opacity="0.3"/>
    </radialGradient>
  </defs>
  <!-- Sky -->
  <rect width="800" height="500" fill="url(#ts-sky)"/>
  <!-- Buildings background -->
  <!-- Left building -->
  <rect x="0" y="150" width="160" height="350" fill="#1a1510"/>
  <rect x="10" y="170" width="30" height="35" fill="#152025" stroke="#2a2015" stroke-width="2"/>
  <rect x="55" y="170" width="30" height="35" fill="#152025" stroke="#2a2015" stroke-width="2"/>
  <rect x="100" y="170" width="30" height="35" fill="#152025" stroke="#2a2015" stroke-width="2"/>
  <rect x="10" y="230" width="30" height="35" fill="#152025" stroke="#2a2015" stroke-width="2"/>
  <rect x="55" y="230" width="30" height="35" fill="#152025" stroke="#2a2015" stroke-width="2"/>
  <rect x="100" y="230" width="30" height="35" fill="#152025" stroke="#2a2015" stroke-width="2"/>
  <polygon points="-10,150 80,100 170,150" fill="#151008"/>
  <!-- Center-left building -->
  <rect x="170" y="130" width="140" height="370" fill="#1f1a12"/>
  <rect x="185" y="150" width="25" height="30" fill="#152025" stroke="#2a2015" stroke-width="2"/>
  <rect x="220" y="150" width="25" height="30" fill="#152025" stroke="#2a2015" stroke-width="2"/>
  <rect x="255" y="150" width="25" height="30" fill="#152025" stroke="#2a2015" stroke-width="2"/>
  <rect x="185" y="200" width="25" height="30" fill="#152025" stroke="#2a2015" stroke-width="2"/>
  <rect x="255" y="200" width="25" height="30" fill="#152025" stroke="#2a2015" stroke-width="2"/>
  <rect x="220" y="350" width="40" height="55" fill="#1a150a"/>
  <polygon points="160,130 240,75 320,130" fill="#151008"/>
  <!-- Center-right building -->
  <rect x="490" y="140" width="150" height="360" fill="#1a1510"/>
  <rect x="505" y="160" width="28" height="32" fill="#152025" stroke="#2a2015" stroke-width="2"/>
  <rect x="545" y="160" width="28" height="32" fill="#152025" stroke="#2a2015" stroke-width="2"/>
  <rect x="585" y="160" width="28" height="32" fill="#152025" stroke="#2a2015" stroke-width="2"/>
  <rect x="505" y="215" width="28" height="32" fill="#152025" stroke="#2a2015" stroke-width="2"/>
  <rect x="585" y="215" width="28" height="32" fill="#152025" stroke="#2a2015" stroke-width="2"/>
  <polygon points="480,140 565,85 650,140" fill="#151008"/>
  <!-- Right building -->
  <rect x="650" y="160" width="150" height="340" fill="#1a1510"/>
  <rect x="665" y="180" width="25" height="30" fill="#152025" stroke="#2a2015" stroke-width="2"/>
  <rect x="710" y="180" width="25" height="30" fill="#152025" stroke="#2a2015" stroke-width="2"/>
  <rect x="755" y="180" width="25" height="30" fill="#152025" stroke="#2a2015" stroke-width="2"/>
  <polygon points="640,160 725,110 810,160" fill="#151008"/>
  <!-- Cobblestone ground -->
  <path d="M0,380 L800,380 L800,500 L0,500 Z" fill="url(#ts-stone)"/>
  <!-- Cobblestone pattern -->
  <g fill="none" stroke="#2a2520" stroke-width="0.8" opacity="0.4">
    <ellipse cx="50" cy="400" rx="25" ry="12"/>
    <ellipse cx="120" cy="395" rx="25" ry="12"/>
    <ellipse cx="190" cy="402" rx="25" ry="12"/>
    <ellipse cx="260" cy="398" rx="25" ry="12"/>
    <ellipse cx="340" cy="400" rx="25" ry="12"/>
    <ellipse cx="460" cy="400" rx="25" ry="12"/>
    <ellipse cx="530" cy="395" rx="25" ry="12"/>
    <ellipse cx="600" cy="402" rx="25" ry="12"/>
    <ellipse cx="670" cy="398" rx="25" ry="12"/>
    <ellipse cx="740" cy="400" rx="25" ry="12"/>
    <ellipse cx="85" cy="425" rx="25" ry="12"/>
    <ellipse cx="155" cy="428" rx="25" ry="12"/>
    <ellipse cx="225" cy="422" rx="25" ry="12"/>
    <ellipse cx="300" cy="430" rx="25" ry="12"/>
    <ellipse cx="400" cy="425" rx="25" ry="12"/>
    <ellipse cx="500" cy="428" rx="25" ry="12"/>
    <ellipse cx="570" cy="422" rx="25" ry="12"/>
    <ellipse cx="640" cy="430" rx="25" ry="12"/>
    <ellipse cx="710" cy="425" rx="25" ry="12"/>
  </g>
  <!-- Fountain base -->
  <ellipse cx="400" cy="360" rx="80" ry="25" fill="#2a2520"/>
  <ellipse cx="400" cy="355" rx="75" ry="22" fill="url(#ts-water)"/>
  <!-- Fountain pillar -->
  <rect x="393" y="280" width="14" height="75" fill="#2a2520"/>
  <!-- Fountain bowl -->
  <ellipse cx="400" cy="280" rx="35" ry="10" fill="#2a2520"/>
  <ellipse cx="400" cy="277" rx="32" ry="8" fill="url(#ts-water)"/>
  <!-- Water streams -->
  <g stroke="#3a4550" stroke-width="1.5" fill="none" opacity="0.4">
    <path d="M385,277 Q380,300 370,340"/>
    <path d="M400,277 Q400,300 400,340"/>
    <path d="M415,277 Q420,300 430,340"/>
  </g>
  <!-- Lamp posts -->
  <g>
    <rect x="278" y="310" width="4" height="70" fill="#2a2520"/>
    <circle cx="280" cy="308" r="8" fill="#2a2015"/>
    <circle cx="280" cy="308" r="4" fill="#5a4a20" opacity="0.5"/>
    <rect x="518" y="310" width="4" height="70" fill="#2a2520"/>
    <circle cx="520" cy="308" r="8" fill="#2a2015"/>
    <circle cx="520" cy="308" r="4" fill="#5a4a20" opacity="0.5"/>
  </g>
  <!-- Benches -->
  <rect x="310" y="370" width="40" height="8" fill="#2a2015" rx="1"/>
  <rect x="315" y="378" width="5" height="12" fill="#2a2015"/>
  <rect x="340" y="378" width="5" height="12" fill="#2a2015"/>
  <rect x="450" y="370" width="40" height="8" fill="#2a2015" rx="1"/>
  <rect x="455" y="378" width="5" height="12" fill="#2a2015"/>
  <rect x="480" y="378" width="5" height="12" fill="#2a2015"/>
</svg>