<svg xmlns="http://www.w3.org/2000/svg" viewBox="0 0 120 160" data-asset-id="char-bard" data-layer="character" data-tags="bard,musician,singer,entertainer">
  <!-- Body (fancy tunic) -->
  <path d="M38,55 Q60,50 82,55 L88,130 L32,130 Z" fill="#9b2a2a"/>
  <!-- Vest -->
  <rect x="44" y="55" width="32" height="45" rx="3" fill="#d4a843"/>
  <!-- Collar -->
  <path d="M48,55 L60,65 L72,55" fill="#e8dcc8"/>
  <!-- Legs -->
  <rect x="44" y="130" width="14" height="20" rx="3" fill="#3a2a3a"/>
  <rect x="62" y="130" width="14" height="20" rx="3" fill="#3a2a3a"/>
  <!-- Boots (fancy) -->
  <rect x="42" y="146" width="18" height="10" rx="3" fill="#4a2a1a"/>
  <rect x="60" y="146" width="18" height="10" rx="3" fill="#4a2a1a"/>
  <!-- Arms -->
  <rect x="28" y="58" width="12" height="35" rx="4" fill="#9b2a2a"/>
  <rect x="80" y="58" width="12" height="35" rx="4" fill="#9b2a2a"/>
  <!-- Lute -->
  <ellipse cx="24" cy="85" rx="14" ry="20" fill="#8b6530" stroke="#6b4510" stroke-width="1.5"/>
  <ellipse cx="24" cy="85" rx="4" ry="6" fill="#4a2a0a"/>
  <rect x="22" y="62" width="4" height="25" fill="#6b4510"/>
  <line x1="20" y1="65" x2="28" y2="65" stroke="#d4a843" stroke-width="1"/>
  <line x1="20" y1="68" x2="28" y2="68" stroke="#d4a843" stroke-width="1"/>
  <!-- Head -->
  <ellipse cx="60" cy="38" rx="16" ry="18" fill="#d4a843"/>
  <!-- Feathered hat -->
  <ellipse cx="60" cy="22" rx="20" ry="10" fill="#9b2a2a"/>
  <ellipse cx="75" cy="15" rx="3" ry="12" fill="#2a6a2a" transform="rotate(20,75,15)"/>
  <!-- Face -->
  <circle cx="53" cy="36" r="2" fill="#2a2a3a"/>
  <circle cx="67" cy="36" r="2" fill="#2a2a3a"/>
  <path d="M54,44 Q60,48 66,44" stroke="#2a2a3a" stroke-width="1.5" fill="none"/>
  <!-- Goatee -->
  <path d="M57,46 Q60,52 63,46" fill="#3a2a1a"/>
</svg>