<svg xmlns="http://www.w3.org/2000/svg" viewBox="0 0 120 160" data-asset-id="char-guard" data-layer="character" data-tags="guard,sentinel,patrol,soldier">
  <!-- Body (leather armor) -->
  <rect x="38" y="55" width="44" height="55" rx="5" fill="#6b4a20"/>
  <rect x="40" y="57" width="40" height="10" rx="2" fill="#7a5a30"/>
  <!-- Belt -->
  <rect x="38" y="95" width="44" height="6" fill="#3a2a1a"/>
  <!-- Legs -->
  <rect x="44" y="110" width="14" height="35" rx="3" fill="#4a3a20"/>
  <rect x="62" y="110" width="14" height="35" rx="3" fill="#4a3a20"/>
  <!-- Boots -->
  <rect x="42" y="140" width="18" height="12" rx="3" fill="#2a1a0a"/>
  <rect x="60" y="140" width="18" height="12" rx="3" fill="#2a1a0a"/>
  <!-- Arms -->
  <rect x="28" y="58" width="12" height="38" rx="4" fill="#6b4a20"/>
  <rect x="80" y="58" width="12" height="38" rx="4" fill="#6b4a20"/>
  <!-- Spear -->
  <rect x="88" y="10" width="4" height="120" rx="1" fill="#6b5030"/>
  <polygon points="86,10 92,10 89,0" fill="#b0b0c0"/>
  <!-- Helmet -->
  <ellipse cx="60" cy="35" rx="20" ry="22" fill="#7a7a6a"/>
  <rect x="42" y="30" width="36" height="5" fill="#8a8a7a"/>
  <!-- Visor -->
  <rect x="46" y="36" width="28" height="6" rx="2" fill="#2a2a2a"/>
  <!-- Face (chin visible) -->
  <rect x="50" y="44" width="20" height="8" rx="2" fill="#c4a060"/>
  <!-- Cape -->
  <path d="M38,55 L28,130 L40,130 Z" fill="#2a5a2a" opacity="0.7"/>
  <path d="M82,55 L92,130 L80,130 Z" fill="#2a5a2a" opacity="0.7"/>
</svg>