<svg xmlns="http://www.w3.org/2000/svg" viewBox="0 0 120 160" data-asset-id="char-healer" data-layer="character" data-tags="healer,priest,cleric,medic">
  <!-- Robe -->
  <path d="M36,55 Q60,50 84,55 L92,155 L28,155 Z" fill="#e8e0c0"/>
  <!-- Sash -->
  <rect x="38" y="70" width="44" height="8" fill="#cc8833"/>
  <!-- Holy symbol -->
  <circle cx="60" cy="82" r="6" fill="#d4a843"/>
  <rect x="57" y="76" width="6" height="12" rx="1" fill="#fff"/>
  <rect x="54" y="80" width="12" height="4" rx="1" fill="#fff"/>
  <!-- Sleeves -->
  <path d="M36,55 L22,90 L36,90 Z" fill="#e8e0c0"/>
  <path d="M84,55 L98,90 L84,90 Z" fill="#e8e0c0"/>
  <!-- Staff -->
  <rect x="8" y="20" width="5" height="120" rx="2" fill="#8b6530"/>
  <circle cx="10" cy="18" r="8" fill="#e8e0c0" stroke="#d4a843" stroke-width="1.5"/>
  <!-- Head -->
  <ellipse cx="60" cy="38" rx="16" ry="18" fill="#d4a843"/>
  <!-- Tonsure haircut -->
  <ellipse cx="60" cy="28" rx="18" ry="10" fill="#5a3a10"/>
  <ellipse cx="60" cy="28" rx="10" ry="6" fill="#d4a843"/>
  <!-- Face -->
  <circle cx="54" cy="36" r="2" fill="#2a2a3a"/>
  <circle cx="66" cy="36" r="2" fill="#2a2a3a"/>
  <path d="M56,44 Q60,47 64,44" stroke="#2a2a3a" stroke-width="1" fill="none"/>
  <!-- Glow effect -->
  <circle cx="60" cy="82" r="12" fill="#d4a843" opacity="0.15"/>
</svg>