<svg xmlns="http://www.w3.org/2000/svg" viewBox="0 0 120 160" data-asset-id="char-mage" data-layer="character" data-tags="mage,wizard,sorcerer,magic">
  <!-- Robe -->
  <path d="M35,55 Q60,50 85,55 L95,150 L25,150 Z" fill="#4a2a6a"/>
  <path d="M40,55 L80,55 L85,150 L35,150 Z" fill="#5a3a7a"/>
  <!-- Belt -->
  <rect x="38" y="90" width="44" height="6" rx="2" fill="#8b6914"/>
  <circle cx="60" cy="93" r="4" fill="#d4a843"/>
  <!-- Sleeves -->
  <path d="M35,55 L20,95 L35,95 Z" fill="#4a2a6a"/>
  <path d="M85,55 L100,95 L85,95 Z" fill="#4a2a6a"/>
  <!-- Staff -->
  <rect x="100" y="10" width="5" height="130" rx="2" fill="#6b4a20"/>
  <circle cx="102" cy="10" r="10" fill="none" stroke="#9b59b6" stroke-width="2"/>
  <circle cx="102" cy="10" r="4" fill="#bb6bd9"/>
  <!-- Hat -->
  <polygon points="60,0 85,40 35,40" fill="#3a1a5a"/>
  <ellipse cx="60" cy="40" rx="28" ry="6" fill="#4a2a6a"/>
  <!-- Stars on hat -->
  <circle cx="55" cy="22" r="2" fill="#d4a843"/>
  <circle cx="65" cy="28" r="1.5" fill="#d4a843"/>
  <!-- Face -->
  <ellipse cx="60" cy="48" rx="14" ry="12" fill="#d4a843"/>
  <circle cx="54" cy="46" r="2" fill="#2a2a3a"/>
  <circle cx="66" cy="46" r="2" fill="#2a2a3a"/>
  <path d="M56,52 Q60,55 64,52" stroke="#2a2a3a" stroke-width="1" fill="none"/>
  <!-- Beard -->
  <path d="M50,52 Q60,70 70,52" fill="#e0e0e0" opacity="0.8"/>
</svg>