<svg xmlns="http://www.w3.org/2000/svg" viewBox="0 0 120 160" data-asset-id="char-merchant" data-layer="character" data-tags="merchant,trader,shopkeeper,vendor">
  <!-- Body -->
  <path d="M38,55 Q60,50 82,55 L88,130 L32,130 Z" fill="#8b6530"/>
  <!-- Vest -->
  <rect x="45" y="55" width="30" height="50" rx="3" fill="#cc3333"/>
  <!-- Shirt -->
  <rect x="50" y="55" width="20" height="15" fill="#e8dcc8"/>
  <!-- Legs -->
  <rect x="44" y="130" width="14" height="20" rx="3" fill="#5a4020"/>
  <rect x="62" y="130" width="14" height="20" rx="3" fill="#5a4020"/>
  <!-- Shoes -->
  <rect x="42" y="146" width="18" height="8" rx="3" fill="#3a2a1a"/>
  <rect x="60" y="146" width="18" height="8" rx="3" fill="#3a2a1a"/>
  <!-- Arms -->
  <rect x="28" y="58" width="12" height="35" rx="4" fill="#8b6530"/>
  <rect x="80" y="58" width="12" height="35" rx="4" fill="#8b6530"/>
  <!-- Coin purse -->
  <ellipse cx="85" cy="100" rx="10" ry="12" fill="#8b6914" stroke="#6b4914" stroke-width="1.5"/>
  <line x1="80" y1="88" x2="90" y2="88" stroke="#6b4914" stroke-width="2"/>
  <!-- Head -->
  <ellipse cx="60" cy="40" rx="18" ry="20" fill="#d4a843"/>
  <!-- Hat (turban) -->
  <ellipse cx="60" cy="28" rx="20" ry="12" fill="#e8e0c0"/>
  <rect x="42" y="25" width="36" height="6" rx="2" fill="#cc3333"/>
  <!-- Face -->
  <circle cx="53" cy="38" r="2" fill="#2a2a3a"/>
  <circle cx="67" cy="38" r="2" fill="#2a2a3a"/>
  <path d="M55,46 Q60,50 65,46" stroke="#2a2a3a" stroke-width="1.5" fill="none"/>
  <!-- Mustache -->
  <path d="M52,44 Q56,42 60,44 Q64,42 68,44" stroke="#3a2a1a" stroke-width="1.5" fill="none"/>
</svg>