<svg xmlns="http://www.w3.org/2000/svg" viewBox="0 0 120 160" data-asset-id="char-rogue" data-layer="character" data-tags="rogue,thief,assassin,shadow">
  <!-- Cloak -->
  <path d="M30,50 Q60,45 90,50 L100,150 L20,150 Z" fill="#2a2a3a"/>
  <!-- Body -->
  <rect x="42" y="55" width="36" height="48" rx="4" fill="#3a3a4a"/>
  <!-- Belt with pouches -->
  <rect x="40" y="88" width="40" height="5" fill="#4a3a2a"/>
  <rect x="44" y="93" width="8" height="8" rx="2" fill="#5a4a30"/>
  <rect x="68" y="93" width="8" height="8" rx="2" fill="#5a4a30"/>
  <!-- Legs -->
  <rect x="46" y="103" width="12" height="32" rx="3" fill="#2a2a3a"/>
  <rect x="62" y="103" width="12" height="32" rx="3" fill="#2a2a3a"/>
  <!-- Soft boots -->
  <rect x="44" y="132" width="16" height="8" rx="3" fill="#2a2020"/>
  <rect x="60" y="132" width="16" height="8" rx="3" fill="#2a2020"/>
  <!-- Daggers -->
  <rect x="28" y="60" width="3" height="28" rx="1" fill="#b0b0c0"/>
  <rect x="89" y="60" width="3" height="28" rx="1" fill="#b0b0c0"/>
  <!-- Hood -->
  <path d="M40,25 Q60,5 80,25 L85,50 L35,50 Z" fill="#2a2a3a"/>
  <!-- Face (shadowed) -->
  <ellipse cx="60" cy="40" rx="14" ry="12" fill="#c4a060"/>
  <rect x="46" y="32" width="28" height="8" fill="#2a2a3a"/>
  <!-- Eyes gleaming -->
  <circle cx="54" cy="40" r="2" fill="#aaffaa"/>
  <circle cx="66" cy="40" r="2" fill="#aaffaa"/>
</svg>