<svg xmlns="http://www.w3.org/2000/svg" viewBox="0 0 120 160" data-asset-id="char-villager" data-layer="character" data-tags="villager,citizen,commoner,folk">
  <!-- Body -->
  <rect x="40" y="55" width="40" height="50" rx="5" fill="#7a6a50"/>
  <!-- Apron -->
  <rect x="42" y="70" width="36" height="35" rx="2" fill="#c4a060"/>
  <!-- Legs -->
  <rect x="44" y="105" width="14" height="35" rx="3" fill="#5a4a30"/>
  <rect x="62" y="105" width="14" height="35" rx="3" fill="#5a4a30"/>
  <!-- Shoes -->
  <rect x="43" y="138" width="16" height="8" rx="3" fill="#3a2a1a"/>
  <rect x="61" y="138" width="16" height="8" rx="3" fill="#3a2a1a"/>
  <!-- Arms -->
  <rect x="30" y="58" width="10" height="32" rx="3" fill="#7a6a50"/>
  <rect x="80" y="58" width="10" height="32" rx="3" fill="#7a6a50"/>
  <!-- Head -->
  <ellipse cx="60" cy="38" rx="16" ry="18" fill="#d4a843"/>
  <!-- Hair -->
  <ellipse cx="60" cy="26" rx="18" ry="12" fill="#5a3a10"/>
  <rect x="42" y="26" width="36" height="8" fill="#5a3a10"/>
  <!-- Face -->
  <circle cx="53" cy="36" r="2" fill="#2a2a3a"/>
  <circle cx="67" cy="36" r="2" fill="#2a2a3a"/>
  <ellipse cx="60" cy="44" rx="4" ry="2" fill="#c48a60"/>
  <!-- Bucket (held) -->
  <rect x="82" y="70" width="14" height="18" rx="2" fill="#6b5030"/>
  <path d="M84,70 Q89,65 94,70" stroke="#6b5030" stroke-width="2" fill="none"/>
</svg>